<?xml version="1.0" standalone="no"?>
<!DOCTYPE svg PUBLIC "-//W3C//DTD SVG 20010904//EN"
 "http://www.w3.org/TR/2001/REC-SVG-20010904/DTD/svg10.dtd">
<svg version="1.0" xmlns="http://www.w3.org/2000/svg"
 width="430.000000pt" height="430.000000pt" viewBox="0 0 430.000000 430.000000"
 preserveAspectRatio="xMidYMid meet">

<g transform="translate(0.000000,430.000000) scale(0.100000,-0.100000)"
fill="#000000" stroke="none">
<path d="M2422 3828 c-20 -25 -93 -208 -113 -285 -13 -49 -23 -125 -26 -202
l-6 -124 -58 -58 c-71 -68 -117 -159 -127 -249 l-7 -62 -110 97 c-291 257
-490 390 -642 429 -78 20 -172 20 -265 0 -40 -9 -79 -17 -86 -17 -8 -1 -21 18
-31 43 -36 92 -138 226 -214 281 -53 38 -69 28 -118 -75 -74 -159 -80 -250
-25 -421 14 -44 30 -109 36 -145 12 -73 51 -190 62 -190 11 0 11 1 -17 65 -14
32 -25 59 -23 60 2 2 37 -17 78 -41 41 -24 80 -44 87 -44 7 0 22 -6 33 -12 16
-11 22 -9 34 7 19 24 20 48 5 90 -11 28 -9 35 10 54 13 13 20 25 16 29 -8 8
-55 -43 -55 -61 0 -7 4 -17 9 -23 14 -13 21 -63 11 -69 -13 -8 -88 13 -117 32
-18 12 -21 19 -12 29 7 8 7 19 1 30 -8 15 -11 14 -25 -7 -16 -22 -17 -22 -39
-4 -55 47 -63 83 -24 108 23 15 24 15 32 -15 15 -51 35 -48 33 4 -3 44 5 68
20 68 4 0 8 -23 8 -50 1 -61 24 -100 58 -100 30 0 31 9 4 95 -11 37 -19 68
-17 70 2 1 13 6 26 9 29 9 40 -16 22 -50 -10 -18 -11 -27 -2 -36 9 -9 15 -3
27 25 8 20 15 43 15 51 0 12 5 12 30 3 28 -11 41 -27 21 -27 -12 0 -61 -51
-61 -63 0 -6 11 0 24 12 24 23 46 22 46 -2 0 -7 16 -32 35 -56 19 -24 35 -49
35 -55 0 -7 13 -30 29 -52 21 -28 44 -45 80 -58 28 -10 68 -31 90 -46 27 -20
41 -25 44 -17 3 7 21 21 41 32 32 17 41 18 83 7 37 -10 59 -25 96 -64 26 -28
47 -55 47 -60 0 -12 -49 -108 -56 -108 -3 0 -16 12 -30 27 -13 14 -27 23 -31
19 -8 -8 24 -38 59 -53 25 -11 108 -120 108 -142 0 -8 -209 -126 -290 -163
-51 -23 -179 -48 -250 -48 -76 0 -76 -4 -7 -141 83 -166 178 -275 306 -352
l53 -32 29 -114 c33 -134 65 -191 107 -191 42 0 80 38 125 125 l42 80 83 -1
c49 -1 78 2 70 7 -7 5 -20 9 -29 9 -8 0 -29 15 -47 33 l-32 33 69 68 68 68 74
-35 c41 -20 108 -45 149 -57 41 -12 82 -24 90 -27 38 -12 -151 -67 -295 -86
-27 -4 -27 -4 6 -6 52 -2 191 26 246 50 26 11 73 36 106 56 64 39 73 39 193 2
55 -17 65 -24 69 -47 24 -114 55 -165 104 -170 43 -4 97 31 150 97 109 139
132 300 48 351 -40 25 -64 25 -104 0 -39 -23 -61 -64 -70 -126 l-6 -46 -106 4
c-157 6 -158 9 -58 99 93 82 152 156 179 223 10 26 38 64 69 93 28 26 71 75
95 109 l43 61 105 17 c169 27 231 55 356 156 25 20 53 40 64 44 17 6 17 8 4
24 -42 48 -61 118 -34 128 8 3 19 18 24 34 12 34 9 35 -117 46 l-84 7 27 20
c16 11 51 40 78 63 33 28 66 46 97 53 25 6 67 18 93 28 40 16 62 17 174 10 85
-5 131 -4 138 3 7 7 -10 10 -56 10 -36 0 -92 3 -125 6 l-61 7 64 62 63 62 80
-5 c63 -4 81 -8 84 -21 3 -11 5 -9 6 5 1 20 -6 23 -71 29 -90 8 -187 25 -193
34 -6 11 93 92 123 101 18 6 -8 9 -79 9 -70 1 -124 -4 -160 -15 -127 -38 -330
-160 -523 -314 -49 -39 -92 -68 -96 -63 -4 4 -13 26 -20 48 -52 169 -176 277
-334 292 -36 3 -66 7 -66 9 0 20 67 178 92 217 33 51 137 137 167 137 51 0 79
61 43 93 -34 31 -55 20 -132 -69 -113 -130 -151 -194 -189 -321 -20 -68 -39
-93 -70 -93 -17 0 -13 143 5 212 23 89 85 217 132 271 47 54 51 68 22 97 -23
23 -53 26 -68 8z m-1608 -271 c16 -12 17 -15 3 -20 -18 -7 -84 10 -92 23 -9
15 69 12 89 -3z m-169 -73 c-43 -34 -50 -30 -18 11 19 24 31 31 38 24 7 -7 1
-18 -20 -35z m223 -30 c35 -7 62 -51 40 -66 -18 -12 -135 -3 -153 12 -44 37
27 71 113 54z m-180 -84 c7 -12 10 -25 7 -30 -6 -9 -93 -70 -101 -70 -2 0 -4
15 -4 34 0 26 7 41 31 60 37 31 50 32 67 6z m647 -11 c22 -6 68 -25 103 -41
61 -29 64 -32 107 -119 25 -49 45 -91 45 -94 0 -4 -8 -4 -17 -1 -10 2 -43 12
-74 20 -71 20 -216 115 -289 190 l-54 56 69 0 c39 0 88 -5 110 -11z m-140 -59
l59 -59 -27 -10 c-34 -13 -227 -40 -231 -32 -2 3 -7 36 -10 72 l-7 67 38 10
c21 5 56 10 78 11 37 1 46 -5 100 -59z m2439 -8 c-12 -9 -41 -33 -65 -53 -24
-21 -73 -53 -109 -72 -63 -35 -172 -72 -189 -65 -5 2 10 34 33 72 45 74 75 95
168 121 29 7 82 14 118 14 63 1 64 0 44 -17z m-2693 -23 c12 -49 -3 -56 -67
-34 -68 24 -78 40 -32 54 57 17 91 10 99 -20z m-191 -44 c0 -20 -10 -30 -49
-50 -27 -13 -51 -30 -54 -37 -3 -7 -6 -4 -6 7 -1 27 7 38 53 74 47 37 56 38
56 6z m866 -13 c68 -45 140 -101 306 -244 114 -97 178 -175 178 -218 0 -8 -14
9 -31 37 -36 62 -110 130 -153 141 -16 4 -59 4 -95 -1 -63 -8 -65 -8 -88 20
-66 79 -203 303 -186 303 6 0 36 -17 69 -38z m1650 -65 c-54 -87 -152 -196
-230 -256 l-56 -43 -40 16 c-22 9 -52 16 -65 16 -53 0 -30 26 136 153 63 48
227 157 236 157 4 0 19 9 33 20 14 10 26 17 29 15 2 -2 -17 -38 -43 -78z
m-1920 28 c59 -37 75 -53 85 -82 6 -20 25 -59 41 -86 l29 -50 -28 6 c-61 12
-81 26 -103 72 -23 47 -94 105 -129 105 -9 0 3 -10 27 -21 45 -23 92 -75 92
-103 0 -12 -18 -2 -65 34 -56 45 -125 122 -125 140 0 4 21 11 48 17 26 6 49
11 51 12 2 0 37 -19 77 -44z m2263 5 c37 0 32 -18 -20 -70 -53 -51 -146 -102
-207 -114 l-33 -6 32 58 c44 78 44 78 112 117 45 25 65 31 78 24 10 -5 27 -9
38 -9z m-2449 -14 c0 -6 27 -40 60 -75 33 -36 58 -66 56 -68 -2 -2 -58 -7
-125 -10 -133 -7 -145 -3 -177 59 -18 35 -17 48 5 75 15 18 35 25 88 31 73 9
93 6 93 -12z m1573 -72 c28 -21 50 -61 78 -143 21 -60 24 -81 10 -81 -5 0 -17
25 -26 55 -19 66 -58 113 -102 121 -28 6 -34 3 -52 -27 -23 -38 -27 -90 -9
-139 9 -29 9 -35 -7 -47 -28 -20 -32 -17 -55 34 -26 58 -53 89 -103 114 -33
17 -41 18 -65 7 -63 -31 -64 -101 -1 -198 42 -65 43 -66 113 -22 61 38 113 52
192 52 56 0 81 5 106 20 40 24 105 26 130 3 30 -27 25 -117 -13 -191 -39 -78
-104 -137 -216 -195 -49 -25 -99 -57 -112 -71 -33 -35 -65 -33 -93 5 -12 16
-45 43 -73 59 -71 41 -130 94 -149 135 -16 33 -16 38 -2 61 9 13 39 35 66 49
55 28 60 29 60 15 0 -5 -7 -10 -16 -10 -10 0 -4 -11 19 -32 30 -29 67 -115 67
-157 0 -28 28 -65 63 -83 71 -36 114 4 176 165 31 79 36 86 85 116 59 35 103
77 93 87 -4 4 -29 -13 -55 -38 -27 -25 -64 -53 -82 -63 -43 -22 -203 -32 -253
-16 -34 12 -136 86 -165 121 -31 37 -62 112 -62 150 0 71 53 140 108 140 35 0
100 -33 151 -77 l43 -37 -6 30 c-8 35 7 81 32 101 23 18 93 11 125 -13z
m-1922 -46 c11 -22 11 -28 -1 -28 -5 0 -14 17 -19 38 -14 47 -13 65 1 32 5
-14 14 -33 19 -42z m728 42 c40 -10 77 -22 81 -27 12 -14 95 -127 103 -140 6
-9 -10 -22 -49 -40 l-56 -28 -49 55 c-68 75 -138 200 -112 200 4 0 41 -9 82
-20z m1839 -22 c-42 -79 -163 -187 -279 -250 -58 -32 -109 -58 -112 -58 -4 0
-7 15 -7 34 0 29 7 39 43 65 51 39 147 131 194 188 20 24 38 41 42 39 3 -2 33
2 66 9 33 7 64 14 68 14 4 1 -3 -18 -15 -41z m-650 -60 c28 -31 62 -106 62
-140 0 -45 -26 -33 -57 24 -24 45 -48 67 -86 81 -5 1 -3 15 4 30 15 34 47 36
77 5z m-1381 -23 c20 -14 43 -69 43 -101 0 -6 -19 -14 -42 -18 -22 -4 -53 -14
-67 -22 -25 -15 -31 -14 -112 23 -76 36 -139 87 -139 113 0 8 39 11 235 18 41
1 68 -3 82 -13z m1135 -31 c43 -22 95 -118 77 -145 -8 -11 -17 -6 -47 27 -44
49 -70 64 -111 64 -24 0 -31 4 -31 20 0 11 9 29 21 41 21 21 38 20 91 -7z
m-1025 -9 c44 -12 68 -26 101 -59 l44 -43 -49 -30 -49 -30 -46 42 c-27 24 -50
55 -53 71 -4 16 -9 37 -12 47 -5 21 -8 21 64 2z m497 -58 c17 -12 39 -31 48
-42 18 -20 138 -213 138 -221 0 -2 23 -40 50 -84 28 -44 50 -83 50 -86 0 -4
11 -22 26 -41 29 -38 80 -68 89 -53 3 6 -5 14 -18 19 -24 9 -90 81 -83 89 3 2
25 -5 50 -17 26 -11 72 -25 103 -31 45 -8 65 -18 91 -45 43 -44 68 -44 118 -2
37 32 193 123 198 115 1 -1 7 -25 14 -51 11 -45 11 -52 -10 -85 -42 -70 -170
-192 -200 -192 -4 0 -8 19 -8 43 0 102 -109 169 -201 122 -16 -9 -40 -34 -54
-56 l-26 -40 -60 47 c-77 61 -90 84 -143 247 -114 355 -230 425 -488 293 -60
-31 -112 -56 -115 -56 -23 0 45 47 131 90 148 74 233 85 300 37z m-51 -43 c41
-21 97 -74 97 -92 0 -16 -102 36 -151 78 l-34 29 28 1 c15 0 42 -7 60 -16z
m-67 -33 c25 -21 75 -51 112 -67 37 -15 75 -35 84 -43 17 -16 53 -91 43 -91
-17 0 -179 62 -230 88 -73 36 -166 104 -162 116 4 11 63 34 90 35 11 1 39 -17
63 -38z m1492 3 c23 -3 42 -9 42 -13 0 -4 -28 -22 -62 -39 -55 -27 -74 -31
-143 -31 -44 0 -104 -8 -133 -16 -57 -17 -66 -16 -57 6 6 16 133 87 173 98 26
7 98 5 180 -5z m-1660 -26 c21 -21 13 -28 -33 -28 -51 0 -59 13 -17 28 36 14
36 14 50 0z m1656 -60 c11 -43 6 -49 -96 -98 -87 -42 -300 -110 -345 -110 -27
0 -11 19 25 31 20 6 118 54 217 105 99 52 183 94 186 94 4 0 9 -10 13 -22z
m-1514 -37 c52 -27 135 -62 184 -77 85 -28 90 -31 107 -69 10 -22 17 -41 16
-42 -2 -1 -30 2 -62 6 -40 6 -80 21 -120 45 -80 49 -183 80 -245 74 l-49 -5
-41 54 c-22 30 -40 56 -40 58 0 3 35 5 78 5 74 0 83 -3 172 -49z m1385 20
c-14 -13 -282 -151 -294 -151 -19 0 69 118 97 129 64 26 219 43 197 22z
m-1394 -121 c77 -25 131 -51 136 -66 2 -7 -18 -12 -56 -13 -65 -2 -125 22
-186 73 l-30 25 36 1 c20 0 65 -9 100 -20z m-65 -57 l49 -28 -33 -3 c-24 -3
-38 3 -52 20 -18 21 -25 38 -16 38 2 0 25 -12 52 -27z m217 -40 c-13 -2 -35
-2 -50 0 -16 2 -5 4 22 4 28 0 40 -2 28 -4z m142 -9 c23 -9 84 -144 101 -223
18 -85 55 -145 108 -176 36 -21 55 -25 120 -25 87 0 127 14 171 60 33 34 45
38 45 12 0 -25 -49 -100 -96 -145 -86 -83 -289 -128 -373 -83 -43 23 -77 60
-103 110 -23 46 -47 167 -48 242 l0 52 55 7 c32 4 55 11 55 18 0 15 -23 49
-62 95 -15 18 -28 39 -28 47 0 16 26 20 55 9z m-247 -149 c1 -1 -9 -27 -23
-58 -32 -70 -58 -190 -52 -240 3 -20 16 -62 28 -93 l24 -57 -25 -16 c-14 -9
-46 -35 -71 -58 -25 -24 -50 -43 -54 -43 -4 0 -5 29 -1 65 8 81 -10 128 -56
144 -17 6 -34 8 -39 5 -31 -19 1 159 47 264 46 105 42 102 137 95 45 -3 83 -7
85 -8z m-498 -104 c-18 -123 -9 -331 19 -410 12 -35 20 -66 17 -68 -3 -3 -25
6 -50 21 -123 72 -147 255 -60 452 20 46 70 101 81 90 3 -2 -1 -41 -7 -85z
m1131 17 c0 -7 2 -32 4 -56 2 -30 0 -42 -8 -39 -15 5 -22 107 -8 107 6 0 11
-6 12 -12z m59 -10 c0 -42 -13 -98 -21 -98 -5 0 -9 27 -9 60 0 47 3 60 15 60
9 0 15 -9 15 -22z m-675 -369 c-22 -22 -49 -45 -60 -50 -11 -6 4 13 33 40 64
61 82 68 27 10z"/>
<path d="M2670 2761 c-46 -6 -46 -13 2 -25 21 -5 30 -2 38 14 6 11 9 19 8 18
-2 0 -23 -4 -48 -7z"/>
<path d="M3738 3303 c7 -3 16 -2 19 1 4 3 -2 6 -13 5 -11 0 -14 -3 -6 -6z"/>
<path d="M3800 3060 c-6 -11 -8 -20 -6 -20 3 0 10 9 16 20 6 11 8 20 6 20 -3
0 -10 -9 -16 -20z"/>
<path d="M3720 2953 c-8 -3 -43 -17 -78 -30 -58 -23 -65 -24 -81 -9 -22 20
-44 20 -81 1 -30 -16 -77 -92 -64 -103 4 -4 9 -2 11 5 12 33 52 79 77 88 23 8
30 6 42 -10 16 -22 18 -88 3 -116 -14 -27 -29 -14 -29 27 0 19 -5 34 -11 34
-6 0 -9 -17 -7 -42 2 -33 8 -45 26 -53 12 -5 20 -15 18 -22 -3 -7 -1 -15 4
-18 14 -9 12 -25 -2 -25 -7 0 -26 -11 -43 -25 l-30 -26 35 21 c43 24 47 25 53
3 3 -14 6 -12 16 11 7 18 16 26 26 22 8 -3 17 -1 20 4 3 5 -9 10 -27 12 -25 2
-34 8 -36 25 -4 26 27 38 82 31 32 -3 35 -1 45 33 20 68 18 72 -44 67 -30 -3
-55 -1 -55 3 0 14 51 48 82 54 21 5 34 3 40 -6 7 -10 8 -9 4 5 -4 12 0 24 11
32 19 14 17 16 -7 7z m-30 -120 c0 -5 -3 -18 -6 -31 -6 -19 -12 -23 -42 -20
-41 4 -66 33 -42 48 18 11 90 13 90 3z"/>
<path d="M855 2850 c-3 -5 4 -20 15 -32 35 -37 41 -54 25 -68 -11 -9 -22 -8
-52 8 -72 36 -138 66 -145 64 -5 -1 -8 3 -8 9 0 30 -30 -18 -40 -64 -16 -71
-11 -112 15 -112 18 0 20 7 21 65 l1 65 -4 -62 c-3 -40 -8 -63 -16 -63 -9 0
-11 19 -7 66 6 86 24 96 94 53 40 -25 46 -33 40 -52 -11 -36 -34 -79 -69 -127
-47 -65 -66 -107 -62 -135 5 -41 17 -41 17 1 0 32 10 53 51 109 28 39 62 94
75 123 23 50 25 52 45 39 16 -12 25 -12 44 -3 32 14 31 41 -1 88 -29 42 -30
42 -39 28z"/>
<path d="M1140 2786 c0 -12 29 -76 34 -76 3 0 -2 17 -11 38 -16 38 -23 50 -23
38z"/>
<path d="M1297 2783 c-23 -4 -26 -7 -16 -19 14 -17 36 -18 42 -1 3 9 7 9 20
-2 21 -16 21 -31 4 -56 -13 -17 -15 -17 -35 3 -28 28 -28 19 1 -19 l22 -31
-25 -19 c-14 -10 -29 -22 -35 -27 -172 -134 -231 -169 -318 -191 -44 -11 -87
-27 -98 -37 -25 -23 -24 -72 3 -147 20 -54 23 -58 32 -38 7 17 5 26 -12 41
-24 22 -37 77 -28 114 6 26 32 39 119 57 66 14 119 45 239 139 103 81 138 103
146 95 4 -4 -9 -21 -28 -37 -40 -35 -31 -34 22 2 21 14 38 33 38 42 0 9 5 29
12 44 11 24 9 29 -25 60 -20 19 -40 33 -44 33 -5 -1 -21 -4 -36 -6z"/>
<path d="M1158 2466 c-136 -113 -156 -126 -188 -126 -24 0 -70 -45 -70 -69 1
-10 6 -6 16 11 16 30 43 48 72 48 21 0 81 43 210 154 84 72 99 86 89 86 -2 0
-60 -47 -129 -104z"/>
<path d="M713 2484 c0 -33 -5 -51 -17 -59 -11 -9 -14 -15 -6 -20 22 -13 40 17
40 66 0 26 -4 50 -9 53 -5 4 -9 -15 -8 -40z"/>
<path d="M3530 2451 c0 -5 -3 -18 -6 -28 -5 -16 -4 -16 10 1 18 23 20 36 6 36
-5 0 -10 -4 -10 -9z"/>
<path d="M3402 2163 c-82 -19 -91 -34 -127 -209 -43 -209 -27 -320 66 -457 83
-124 75 -122 164 -32 72 74 75 76 84 53 9 -21 10 -19 10 14 1 51 18 57 26 9 5
-33 1 -47 -34 -105 -32 -51 -41 -77 -41 -110 0 -52 21 -76 46 -55 12 10 14 25
10 68 -3 31 -6 64 -6 74 -1 10 17 41 39 69 23 28 41 57 41 64 0 13 12 18 33
15 9 -1 9 -2 -2 56 -21 108 -23 125 -10 117 8 -5 10 -3 4 6 -5 7 -7 62 -6 122
3 151 -11 213 -59 259 -37 35 -102 60 -152 58 -13 0 -51 -7 -86 -16z m169 -14
c45 -15 99 -67 99 -95 0 -16 -10 -26 -40 -38 -46 -18 -175 -22 -232 -6 -33 10
-78 50 -78 71 0 16 51 59 78 65 15 3 32 7 37 9 24 8 105 4 136 -6z m113 -176
c3 -21 6 -58 6 -83 0 -39 -6 -50 -39 -83 l-39 -39 -16 31 c-10 18 -31 37 -52
46 -33 14 -35 17 -29 47 11 47 34 77 64 84 14 3 40 11 56 19 42 19 42 19 49
-22z m-276 -45 c3 -14 -3 -18 -25 -18 -27 1 -63 20 -63 34 0 4 19 6 42 4 31
-2 44 -8 46 -20z m89 -3 c3 -9 2 -19 -1 -23 -8 -8 -38 10 -44 26 -6 18 38 14
45 -3z m-99 -124 c2 -6 1 -23 -3 -38 -6 -24 -9 -25 -52 -20 -51 5 -63 17 -63
63 l0 30 57 -11 c31 -6 59 -17 61 -24z m110 -38 c-3 -31 -34 -44 -44 -19 -7
19 12 46 33 46 10 0 13 -9 11 -27z m167 -135 c6 -38 -6 -90 -22 -95 -6 -2 -16
12 -23 31 -9 28 -8 40 5 65 20 40 33 39 40 -1z m-264 2 c53 0 59 -8 37 -55
-13 -29 -19 -30 -61 -9 -66 34 -110 96 -51 74 14 -6 48 -10 75 -10z m152 -22
c-10 -21 -12 -21 -18 -5 -10 25 2 54 17 39 8 -8 8 -18 1 -34z m31 -234 c15
-38 3 -94 -20 -94 -10 0 -14 12 -14 39 0 43 8 71 20 71 4 0 11 -7 14 -16z"/>
<path d="M3541 2111 c-11 -7 -11 -16 5 -50 19 -40 37 -51 50 -30 3 6 0 15 -7
20 -8 5 -14 20 -14 35 0 30 -12 39 -34 25z"/>
<path d="M3393 2104 c-25 -11 -12 -24 23 -24 24 0 34 4 32 13 -5 13 -35 19
-55 11z"/>
<path d="M3362 2059 c5 -16 78 -25 78 -10 0 6 -11 11 -24 11 -13 0 -32 3 -42
7 -12 4 -15 2 -12 -8z"/>
<path d="M2808 2013 c7 -3 16 -2 19 1 4 3 -2 6 -13 5 -11 0 -14 -3 -6 -6z"/>
<path d="M3717 1695 c3 -16 12 -46 20 -65 l13 -35 -4 31 c-3 18 -12 47 -20 65
-15 34 -15 34 -9 4z"/>
<path d="M1072 898 c-25 -32 -120 -264 -111 -273 12 -12 38 3 53 31 17 30 27
34 88 34 54 0 57 -2 77 -35 22 -38 51 -47 51 -15 0 27 -90 230 -112 252 -21
21 -32 23 -46 6z m48 -119 c14 -34 4 -49 -33 -49 -26 0 -31 24 -12 59 18 36
27 34 45 -10z"/>
<path d="M2005 898 c-3 -8 -4 -72 -3 -144 l3 -129 25 0 c24 0 25 2 30 84 6 93
7 93 55 3 37 -69 56 -66 98 13 38 73 36 70 44 62 3 -4 5 -37 5 -74 -2 -76 6
-97 34 -91 17 3 19 15 22 141 l3 137 -31 2 c-16 0 -35 1 -42 2 -7 1 -26 -33
-44 -74 -18 -41 -36 -75 -41 -74 -9 1 -22 24 -56 99 -20 46 -25 50 -60 53 -24
2 -39 -1 -42 -10z"/>
<path d="M3169 900 c-17 -10 -119 -236 -119 -263 0 -9 7 -14 18 -12 9 2 20 4
23 4 4 1 12 15 19 31 12 29 15 30 75 30 62 0 64 -1 85 -35 13 -20 30 -35 41
-35 10 0 19 3 19 8 -1 25 -119 277 -131 279 -7 2 -21 -2 -30 -7z m42 -119 c10
-22 14 -42 11 -45 -8 -9 -45 -7 -61 3 -13 8 -12 15 4 45 11 20 22 36 25 36 3
0 12 -18 21 -39z"/>
<path d="M600 761 c0 -134 1 -141 20 -141 18 0 20 7 20 86 0 103 10 106 60 14
19 -35 40 -65 47 -67 6 -2 24 17 39 44 15 26 34 59 43 73 l16 25 7 -45 c3 -25
7 -64 7 -87 1 -36 4 -43 21 -43 20 0 20 5 18 138 l-3 137 -35 0 c-34 0 -36 -3
-69 -72 -19 -40 -38 -73 -41 -73 -3 0 -22 33 -41 73 -33 69 -36 72 -72 75
l-37 3 0 -140z"/>
<path d="M1280 783 c0 -65 3 -129 7 -142 6 -23 9 -23 74 -18 93 8 137 30 160
81 23 51 24 78 2 123 -26 56 -64 73 -160 73 l-83 0 0 -117z m159 62 c34 -17
41 -33 41 -86 0 -58 -36 -91 -93 -87 l-42 3 -7 67 c-10 88 1 118 42 118 17 0
44 -7 59 -15z"/>
<path d="M1600 797 c0 -121 12 -145 80 -166 36 -10 46 -10 78 6 52 25 70 69
73 173 l2 85 -26 3 -27 3 0 -94 c0 -89 -2 -96 -27 -121 -32 -33 -59 -30 -87 7
-17 23 -21 44 -22 115 -1 81 -3 87 -23 90 -20 3 -21 0 -21 -101z"/>
<path d="M2392 795 c4 -93 7 -108 28 -130 37 -40 89 -51 134 -30 55 26 64 47
68 160 3 96 2 100 -18 103 -20 3 -22 -2 -26 -92 -3 -83 -7 -99 -28 -121 -31
-33 -53 -32 -84 6 -24 28 -26 38 -26 120 l0 89 -26 0 -27 0 5 -105z"/>
<path d="M2680 880 c0 -17 7 -20 40 -20 l40 0 0 -120 0 -120 25 0 25 0 0 120
0 120 40 0 c33 0 40 3 40 20 0 19 -7 20 -105 20 -98 0 -105 -1 -105 -20z"/>
<path d="M2942 763 l3 -138 28 -3 28 -3 -3 138 -3 138 -28 3 -28 3 3 -138z"/>
<path d="M3380 759 c0 -140 0 -140 23 -137 18 2 23 11 27 48 8 71 34 66 96
-16 17 -22 35 -34 50 -34 29 0 30 16 4 50 -25 32 -25 55 0 80 29 29 27 94 -5
125 -22 23 -32 25 -110 25 l-85 0 0 -141z m144 95 c19 -7 22 -64 4 -82 -7 -7
-26 -12 -43 -12 -17 0 -36 5 -43 12 -13 13 -17 70 -5 81 8 9 66 9 87 1z"/>
<path d="M3752 888 c-5 -7 -33 -68 -60 -135 l-51 -123 30 0 c18 0 29 5 29 13
0 8 8 21 18 30 25 23 116 23 134 1 38 -46 50 -56 60 -46 11 11 -8 69 -65 195
-30 65 -40 77 -60 77 -14 0 -29 -6 -35 -12z m56 -101 c17 -46 16 -47 -23 -47
-19 0 -35 2 -35 4 0 13 32 76 38 76 4 0 13 -15 20 -33z"/>
</g>
</svg>
